<?xml version="1.0" encoding="utf-8"?>
<!-- Generator: Adobe Illustrator 24.0.0, SVG Export Plug-In . SVG Version: 6.00 Build 0)  -->
<svg version="1.1" xmlns="http://www.w3.org/2000/svg" xmlns:xlink="http://www.w3.org/1999/xlink" x="0px" y="0px"
	 viewBox="0 0 24 16" style="enable-background:new 0 0 24 16;" xml:space="preserve">
<g id="Layer_1">
	
		<image style="display:none;overflow:visible;" width="2811" height="2431" xlink:href="../Downloads/CBJ-Primary-OneColor-DarkBG.png"  transform="matrix(0.0062 0 0 0.0062 3.6755 0.5667)">
	</image>
	<g>
		<g>
			<path style="fill:#FFFFFF;" d="M16.998,10.754l3.182-7.322c0,0-2.303,1.364-4.933,2.406l4.52-3.361l-2.845,0.49
				c-0.407-0.244-1.822-0.977-4.108-0.977c0,0-0.2,0.005-0.371,0.009c-0.084-0.247-0.481-1.415-0.481-1.415l-0.73,1.513
				C7.064,2.631,3.821,5.091,3.821,7.747c0,1.186,0.509,2.747,2.854,3.59l-1.183,2.923l3.129-2.467
				c0.672,0.091,1.417,0.138,2.221,0.138c0.941,0,1.866-0.071,2.755-0.208l3.423,3.006l-1.168-3.525
				C15.852,11.203,16.541,10.981,16.998,10.754z M16.574,13.999l-2.889-2.567c-0.808,0.131-1.761,0.223-2.843,0.223
				c-0.864,0-1.629-0.053-2.304-0.151l-2.605,2.108l1.118-2.436c-2.165-0.677-2.955-1.993-2.955-3.429
				c0-2.563,3.216-4.817,6.997-5.358l-0.15,0.305C7.52,3.368,6.247,4.713,6.247,4.713S5.733,5.321,5.733,6.126
				c0,0.901,0.861,2.497,3.617,2.497c1.817,0,4.382-0.914,5.192-1.222c0.776-0.454,1.554-0.967,2.227-1.519
				c0,0-3.914,2.135-7.165,2.135c-2.184,0-3.194-1.013-3.194-1.692c0-2.024,3.563-3.072,4.361-3.281L9.947,4.724l-2.511,1.03
				l2.706-0.768l1.774-3.677l0.33,0.97c0.189-0.009,0.378-0.014,0.567-0.014c2.268,0,3.619,0.753,3.619,0.753l-3.188,1.284
				l5.696-1.459l-5.125,3.554l0.105,0.289c2.988-1.032,5.671-2.594,5.671-2.594l-2.807,6.459c0,0-0.45,0.226-1.291,0.473
				L16.574,13.999z"/>
			<path style="fill:#FFFFFF;" d="M14.883,8.814c0.165,0.35,0.651,0.41,1.085,0.136c0.434-0.275,0.65-0.779,0.485-1.129
				c-0.167-0.35-0.652-0.41-1.086-0.137C14.934,7.96,14.716,8.465,14.883,8.814z M15.432,7.786c0.352-0.222,0.737-0.168,0.862,0.124
				c0.123,0.29-0.061,0.706-0.414,0.929c-0.353,0.223-0.739,0.168-0.862-0.123C14.894,8.425,15.079,8.009,15.432,7.786z"/>
			<polygon style="fill:#FFFFFF;" points="12.117,9.124 12.113,9.002 12.006,9.136 11.837,9.158 11.942,9.215 11.837,9.352 
				12.016,9.258 12.141,9.347 12.118,9.201 12.286,9.106 			"/>
			<polygon style="fill:#FFFFFF;" points="13.312,8.648 13.44,8.741 13.419,8.589 13.591,8.49 13.417,8.508 13.413,8.383 
				13.301,8.522 13.125,8.545 13.233,8.605 13.124,8.746 			"/>
			<polygon style="fill:#FFFFFF;" points="14.266,8.736 14.384,8.82 14.364,8.682 14.52,8.592 14.362,8.609 14.359,8.494 
				14.257,8.621 14.097,8.641 14.196,8.696 14.097,8.825 			"/>
			<polygon style="fill:#FFFFFF;" points="12.961,9.444 13.076,9.531 13.059,9.392 13.218,9.305 13.058,9.318 13.058,9.204 
				12.953,9.329 12.794,9.345 12.891,9.402 12.789,9.529 			"/>
			<polygon style="fill:#FFFFFF;" points="13.895,9.574 14.01,9.662 13.994,9.523 14.153,9.435 13.993,9.45 13.992,9.335 
				13.887,9.461 13.728,9.476 13.825,9.533 13.724,9.66 			"/>
			<polygon style="fill:#FFFFFF;" points="14.645,7.856 14.793,7.963 14.767,7.787 14.967,7.672 14.766,7.695 14.761,7.549 
				14.632,7.711 14.429,7.736 14.554,7.806 14.429,7.968 			"/>
			<polygon style="fill:#FFFFFF;" points="15.925,7.15 16.167,6.99 16.385,7.101 16.306,6.892 16.53,6.73 16.279,6.781 
				16.235,6.605 16.114,6.816 15.863,6.869 16.041,6.938 			"/>
			<polygon style="fill:#FFFFFF;" points="17.303,6.344 17.612,6.172 17.849,6.335 17.788,6.068 18.072,5.892 17.771,5.926 
				17.746,5.704 17.573,5.95 17.271,5.99 17.47,6.095 			"/>
			<polygon style="fill:#FFFFFF;" points="16.482,9.561 16.481,9.384 16.32,9.577 16.073,9.602 16.224,9.689 16.066,9.885 
				16.33,9.754 16.508,9.886 16.482,9.673 16.728,9.539 			"/>
			<polygon style="fill:#FFFFFF;" points="16.818,8.579 16.984,8.699 16.955,8.503 17.177,8.374 16.952,8.399 16.948,8.237 
				16.803,8.416 16.577,8.446 16.718,8.522 16.577,8.704 			"/>
			<polygon style="fill:#FFFFFF;" points="17.211,7.451 17.391,7.581 17.361,7.368 17.602,7.228 17.358,7.255 17.353,7.079 
				17.196,7.274 16.95,7.306 17.103,7.389 16.95,7.587 			"/>
			<polygon style="fill:#FFFFFF;" points="15.177,9.565 15.176,9.433 15.055,9.578 14.871,9.596 14.982,9.661 14.865,9.808 
				15.063,9.709 15.197,9.809 15.177,9.649 15.36,9.549 			"/>
			<path style="fill:#FFFFFF;" d="M15.497,2.991c0,0-1.072-0.522-3.163-0.453l0.096,0.283C12.661,2.794,13.92,2.674,15.497,2.991z"
				/>
			<path style="fill:#FFFFFF;" d="M4.669,6.689c-0.011,0.593,0.216,3.321,5.338,3.321c1.207,0,2.015-0.096,2.421-0.16
				c-1.223-0.231-1.955-0.468-1.955-0.468s0.564-0.219,1.399-0.602c-0.56,0.148-1.637,0.378-2.926,0.378
				c-1.834,0-3.65-0.86-3.65-2.678c0-1.105,0.95-1.769,0.95-1.769S5.102,5.405,4.669,6.689z"/>
			<path style="fill:#FFFFFF;" d="M14.574,10.16c-0.543,0.141-2.259,0.543-4.164,0.543c-5.851,0-5.905-3.019-5.905-3.019
				c0,1.547,1.014,3.571,6.215,3.571c3.688,0,5.652-0.978,5.652-0.978C15.736,10.259,15.133,10.217,14.574,10.16z"/>
			<path style="fill:#FFFFFF;" d="M8.724,7.531l0.223-0.487L7.64,6.684C7.64,6.684,7.268,7.349,8.724,7.531z"/>
			<path style="fill:#FFFFFF;" d="M11.22,7.415v-1.7l-1.193,1.846C10.413,7.539,10.812,7.488,11.22,7.415z"/>
			<path style="fill:#FFFFFF;" d="M16.717,3.9L12.55,4.91l-0.734-2.295l-1.163,2.775L7.492,6.182l2.213,0.542L9.28,7.572
				c0.038,0.001,0.077,0.002,0.117,0.003l0.422-0.828l1.401-1.031L8.116,6.14l2.598-0.701l0.506,0.277l0.596-2.71l0.573,1.951
				L11.22,5.716l4.82-1.463c0,0-2.941,1.865-2.995,1.857c-0.054-0.008-1.825-0.394-1.825-0.394l0.939,1.499
				c0.417-0.103,0.836-0.224,1.252-0.357l-0.24-0.638L16.717,3.9z"/>
			<path style="fill:#FFFFFF;" d="M14.799,11.428l0.477,0.762l-0.641-0.507c-0.014,0.042-0.026,0.089-0.036,0.142l0.966,0.762
				l-0.489-1.3C14.965,11.329,14.873,11.367,14.799,11.428z"/>
			<path style="fill:#FFFFFF;" d="M7.585,11.341l-0.493,0.763l0.4-0.786c-0.026-0.004-0.053-0.006-0.083-0.007l-0.525,1.05
				l0.987-0.736C7.808,11.511,7.736,11.395,7.585,11.341z"/>
		</g>
		<g>
			<path style="fill:#FFFFFF;" d="M17.216,11.813c0,0.146-0.115,0.261-0.264,0.261c-0.148,0-0.265-0.115-0.265-0.261
				c0-0.143,0.118-0.258,0.265-0.258C17.101,11.556,17.216,11.67,17.216,11.813z M16.752,11.813c0,0.115,0.085,0.206,0.201,0.206
				c0.113,0,0.196-0.091,0.196-0.204c0-0.115-0.083-0.207-0.198-0.207C16.837,11.607,16.752,11.7,16.752,11.813z M16.911,11.948
				h-0.06v-0.258c0.024-0.005,0.056-0.008,0.099-0.008c0.049,0,0.071,0.008,0.09,0.019c0.014,0.011,0.025,0.031,0.025,0.057
				c0,0.028-0.022,0.05-0.053,0.06v0.003c0.025,0.009,0.039,0.028,0.047,0.063c0.008,0.039,0.013,0.055,0.019,0.064h-0.064
				c-0.008-0.009-0.013-0.033-0.02-0.063c-0.005-0.028-0.021-0.041-0.053-0.041h-0.028V11.948z M16.912,11.802h0.028
				c0.033,0,0.06-0.011,0.06-0.038c0-0.024-0.017-0.039-0.055-0.039c-0.016,0-0.027,0.002-0.033,0.003V11.802z"/>
		</g>
	</g>
</g>
<g id="Layer_2">
</g>
</svg>
